<?xml version="1.0" standalone="no"?>
<!DOCTYPE svg PUBLIC "-//W3C//DTD SVG 20010904//EN"
 "http://www.w3.org/TR/2001/REC-SVG-20010904/DTD/svg10.dtd">
<svg version="1.0" xmlns="http://www.w3.org/2000/svg"
 width="700.000000pt" height="700.000000pt" viewBox="0 0 700.000000 700.000000"
 preserveAspectRatio="xMidYMid meet">
<metadata>
Created by potrace 1.15, written by Peter Selinger 2001-2017
</metadata>
<g transform="translate(0.000000,700.000000) scale(0.100000,-0.100000)"
fill="#000000" stroke="none">
<path d="M3334 6993 c-39 -4 -43 -7 -62 -51 -11 -26 -22 -58 -25 -72 -5 -17
-25 -36 -64 -58 -32 -18 -75 -49 -97 -68 -21 -19 -41 -34 -45 -34 -3 0 -58 7
-121 16 -213 30 -621 16 -819 -27 -93 -21 -420 -201 -621 -343 -237 -167 -527
-441 -702 -661 -99 -124 -244 -333 -293 -420 -67 -120 -165 -319 -207 -420
-50 -121 -118 -306 -118 -323 0 -5 31 -13 69 -17 64 -6 69 -9 75 -33 15 -69
18 -458 6 -642 l-13 -194 -29 34 c-55 66 -116 207 -148 345 -16 72 -30 142
-30 158 0 52 -17 27 -29 -42 -15 -94 -14 -114 8 -164 10 -23 30 -68 44 -99 32
-72 85 -153 143 -217 l44 -49 0 -208 c0 -336 20 -611 62 -839 23 -130 90 -405
120 -490 53 -154 260 -559 304 -596 9 -7 3 9 -15 37 -94 153 -183 419 -240
711 -61 317 -83 523 -88 824 -6 316 6 396 26 172 27 -308 117 -804 196 -1078
113 -392 182 -569 384 -974 111 -224 156 -304 186 -334 l40 -40 7 154 c6 139
32 349 73 579 8 47 22 144 30 215 9 72 24 171 35 220 32 140 80 422 87 503 3
39 10 72 14 72 5 0 9 -4 9 -9 0 -15 197 -217 263 -270 61 -48 177 -125 177
-118 0 2 -27 25 -61 52 -109 86 -297 315 -363 442 -16 33 -22 93 -8 93 4 -1
30 -35 59 -78 176 -262 535 -573 821 -712 28 -14 52 -28 52 -32 0 -3 -14 -9
-31 -13 -17 -4 -28 -9 -25 -12 3 -3 19 0 36 5 26 10 42 7 108 -18 42 -17 92
-33 112 -36 l35 -6 -45 30 c-25 16 -56 39 -69 51 -24 21 -24 22 -5 36 17 14
17 14 -9 3 -26 -11 -31 -9 -88 48 -128 126 -276 310 -480 597 -27 38 -15 34
43 -15 131 -109 261 -199 358 -248 95 -48 234 -106 208 -87 -9 7 -58 41 -109
77 -102 72 -284 246 -370 355 -78 99 -218 300 -229 330 -10 27 -81 136 -110
170 -10 11 -26 33 -36 50 -16 24 -7 20 48 -25 36 -30 115 -83 175 -117 120
-69 171 -91 105 -46 -23 17 -77 61 -118 98 -234 211 -375 489 -469 922 -32
146 -36 179 -30 248 15 187 66 438 145 716 38 132 104 331 119 358 5 8 24 -26
51 -95 173 -433 372 -735 677 -1023 98 -93 301 -254 311 -246 1 1 -23 40 -55
86 -107 160 -225 422 -388 869 -35 96 -77 212 -94 258 -34 93 -33 109 3 29 53
-121 228 -431 344 -612 60 -94 155 -235 157 -235 11 0 -346 1005 -400 1125
-37 83 -65 155 -61 155 2 0 13 -16 25 -35 62 -105 295 -364 438 -487 l82 -71
-19 -25 c-30 -37 -24 -50 9 -18 l28 27 64 -44 c153 -106 357 -198 574 -259
120 -34 281 -35 402 -2 20 6 26 -2 58 -72 49 -106 108 -286 137 -412 19 -85
26 -103 43 -106 11 -3 49 -9 84 -15 36 -6 99 -26 140 -46 42 -19 67 -28 57
-20 -10 8 -23 16 -29 18 -7 2 -6 24 2 68 17 90 21 100 34 93 8 -5 8 -2 0 7
-15 15 -17 49 -4 49 5 0 14 -7 21 -15 7 -8 16 -15 20 -15 11 0 51 210 58 310
l7 92 72 -109 c86 -131 223 -304 235 -297 4 3 5 31 2 62 -29 293 -44 373 -94
477 -48 99 -163 385 -158 391 3 2 32 -51 66 -119 34 -67 76 -147 92 -177 l30
-55 0 125 c0 133 28 357 53 426 33 91 97 164 143 164 34 0 36 -24 13 -145 -12
-69 -22 -173 -26 -280 -4 -144 -2 -189 16 -295 11 -69 21 -128 21 -132 0 -4
18 -1 40 8 45 18 79 13 121 -17 29 -20 59 -25 59 -9 0 19 71 10 120 -15 53
-27 117 -95 165 -176 38 -65 55 -73 55 -27 0 60 28 185 76 341 3 11 0 17 -9
17 -22 0 -252 224 -324 316 -34 44 -96 125 -138 182 l-76 103 -85 257 c-47
141 -88 263 -91 271 -3 8 8 4 24 -10 346 -278 531 -446 717 -649 137 -150 50
-21 -119 175 -200 233 -453 483 -645 637 -40 33 -49 47 -74 125 -58 180 -189
413 -305 545 -40 45 -43 47 -169 77 -155 37 -351 71 -428 74 l-57 2 -43 -62
-42 -62 -27 35 c-15 19 -45 53 -67 74 l-40 40 -121 -2 c-67 -1 -141 -3 -163
-5z m-281 -1890 c154 -100 440 -222 594 -254 38 -8 58 -16 50 -21 -30 -19
-279 -4 -379 22 -67 18 -377 267 -362 291 9 16 24 10 97 -38z m-1743 -2221
c27 -56 66 -128 86 -159 l36 -57 -7 -95 c-14 -212 -36 -466 -41 -470 -2 -2 -4
13 -4 35 0 91 -70 572 -111 759 -27 127 -28 127 41 -13z"/>
<path d="M5860 5097 c0 -4 56 -92 124 -195 119 -180 276 -433 276 -444 0 -10
-257 130 -386 210 l-82 50 -6 -52 c-3 -28 -6 -126 -6 -217 0 -159 2 -172 40
-330 22 -90 42 -174 45 -185 4 -18 17 -24 71 -34 49 -9 73 -20 99 -44 37 -35
48 -69 67 -204 l13 -93 100 -46 c55 -25 149 -63 209 -84 105 -37 147 -56 96
-45 -14 3 -79 17 -145 31 -120 25 -203 46 -239 60 -17 8 -18 4 -11 -56 4 -35
10 -67 14 -71 12 -13 450 -68 543 -68 50 0 57 -3 95 -42 44 -47 86 -107 143
-205 l38 -64 12 84 c12 82 10 174 -5 210 -5 12 -3 17 8 17 8 0 17 13 21 31 14
73 0 494 -20 592 -6 27 -85 98 -182 162 -23 15 -40 30 -37 33 3 3 50 -25 104
-61 54 -37 101 -67 105 -67 12 0 -7 55 -27 78 -36 39 -287 206 -418 278 -114
63 -128 74 -158 122 -98 158 -500 679 -501 649z"/>
<path d="M3377 4694 c-37 -7 -91 -24 -120 -37 -53 -24 -169 -123 -189 -161
-11 -21 -11 -21 11 -2 l21 19 -15 -30 c-8 -16 -17 -52 -21 -79 l-5 -49 15 33
c8 17 18 32 22 32 3 0 4 -15 0 -32 -3 -18 -2 -49 3 -68 7 -30 9 -32 16 -15 28
73 101 208 121 224 80 63 204 10 204 -88 0 -22 5 -31 16 -31 10 0 14 -7 12
-17 -2 -10 -10 -17 -16 -15 -7 1 -21 -13 -32 -31 -11 -19 -32 -39 -46 -45 -40
-19 -98 -15 -128 9 l-26 20 0 -38 c0 -64 46 -167 98 -218 67 -66 99 -73 224
-46 120 25 135 34 176 96 74 112 43 321 -63 413 -43 39 -39 40 27 6 58 -30
143 -105 165 -147 8 -16 18 -56 22 -90 l7 -62 16 30 c8 17 25 59 37 95 13 36
27 68 33 71 14 9 -60 88 -126 137 l-51 37 35 5 c31 5 29 7 -25 13 -33 4 -78
16 -99 25 l-40 18 43 13 c62 18 46 22 -27 6 -39 -8 -76 -10 -95 -5 -62 16
-133 17 -200 4z m203 -464 c37 -19 38 -21 34 -62 -6 -56 -40 -88 -95 -88 -59
0 -103 22 -119 59 -13 31 -12 33 25 64 35 29 65 42 103 46 7 0 30 -8 52 -19z"/>
<path d="M2035 4161 c-93 -27 -124 -47 -210 -136 -45 -46 -103 -97 -130 -114
-56 -35 -53 -41 5 -11 22 11 40 16 40 10 0 -18 -48 -106 -75 -139 -34 -39 -25
-41 12 -2 l28 29 0 -136 0 -135 40 -14 c22 -7 62 -20 89 -28 l50 -15 -26 27
c-45 48 -58 86 -58 165 0 41 7 100 15 133 18 67 55 141 70 138 6 -1 19 7 30
17 50 47 131 29 162 -35 9 -18 24 -36 34 -38 25 -7 25 -37 0 -37 -13 0 -20
-10 -25 -31 -9 -48 -60 -89 -108 -89 -32 0 -47 7 -75 35 l-36 36 5 -53 c11
-130 111 -240 246 -268 60 -13 76 -8 198 71 l94 61 0 92 c0 170 -64 295 -183
356 -36 19 -38 21 -12 15 17 -3 59 -19 94 -36 35 -16 66 -28 68 -25 2 2 -18
25 -44 51 l-48 48 38 -6 c20 -3 37 -2 37 2 0 11 -101 61 -123 61 -9 0 -17 5
-17 10 0 16 -119 10 -185 -9z m222 -436 c12 -8 28 -12 37 -9 12 5 15 -2 12
-42 -2 -38 -8 -51 -32 -70 -54 -43 -77 -48 -128 -25 -41 17 -62 41 -37 41 4 0
16 20 25 45 25 64 79 91 123 60z"/>
<path d="M4100 3950 c0 -107 -65 -337 -117 -413 -48 -71 -48 -70 -21 -56 81
43 224 237 273 374 19 52 31 72 41 68 8 -3 14 -3 14 0 0 5 -126 59 -167 72
-22 6 -23 4 -23 -45z"/>
<path d="M3695 1819 c-49 -18 -123 -52 -165 -77 -72 -43 -212 -155 -256 -204
-12 -12 -31 -31 -42 -40 -12 -9 -26 -36 -32 -60 -17 -66 -19 -70 -34 -65 -7 3
-32 -3 -54 -13 -23 -11 -42 -16 -42 -12 0 4 11 29 25 55 l26 48 -23 32 c-81
117 -167 187 -296 241 -94 40 -87 31 16 -19 60 -30 92 -51 93 -63 2 -29 -3
-147 -6 -150 -2 -2 -11 1 -22 7 -46 26 -102 42 -169 48 -71 6 -72 6 -78 37 -5
28 -9 134 -7 178 1 15 4 16 36 2 19 -7 40 -14 47 -13 7 0 1 5 -14 11 -20 7
-28 17 -29 36 -1 23 -2 23 -6 5 -4 -19 -8 -20 -36 -12 -18 5 -41 9 -51 9 -18
0 -18 -1 -4 -12 12 -10 17 -43 22 -151 3 -77 8 -143 11 -147 3 -5 7 -60 9
-122 2 -62 7 -123 11 -134 6 -20 0 -24 -69 -44 -42 -13 -79 -27 -82 -32 -3 -4
7 -3 22 2 72 28 110 30 177 10 37 -10 85 -29 107 -41 40 -23 53 -49 24 -49
-24 0 -144 -82 -189 -129 -21 -22 -42 -41 -46 -41 -4 0 -31 19 -61 43 -98 78
-178 126 -178 108 0 -18 27 -74 31 -63 2 6 20 -3 40 -21 20 -18 59 -50 88 -72
45 -35 51 -43 46 -70 -2 -16 -7 -60 -11 -97 -4 -38 -10 -68 -13 -68 -6 1 -33
54 -101 200 -17 36 -28 54 -25 40 3 -14 40 -94 81 -178 62 -124 75 -160 72
-189 -3 -26 -2 -32 6 -21 6 7 19 12 28 10 27 -5 66 44 85 109 10 33 22 59 28
59 27 0 125 -128 125 -163 0 -30 -90 -175 -133 -213 -57 -52 -70 -47 -107 44
l-31 77 5 -80 c4 -79 33 -174 67 -225 l15 -23 43 46 c39 42 57 68 126 177 111
176 224 430 274 615 31 112 32 114 41 90 5 -15 9 -9 14 28 4 26 16 73 27 104
10 31 19 72 19 91 l0 35 58 -6 c34 -3 49 -2 37 3 -11 5 -31 9 -44 9 l-24 1 24
19 c33 25 85 51 103 51 8 0 27 -12 41 -27 19 -21 25 -39 25 -71 0 -41 -1 -42
-22 -32 -17 8 -15 5 7 -15 30 -25 30 -26 10 -41 -11 -9 -19 -19 -18 -24 2 -8
-11 -21 -92 -89 -18 -15 -30 -20 -33 -13 -6 19 -21 14 -16 -5 2 -10 -9 -33
-27 -53 -16 -19 -43 -50 -59 -67 l-28 -32 8 -118 c7 -111 7 -113 9 -37 1 76 3
85 39 140 40 60 78 101 87 92 12 -11 55 -212 64 -300 20 -177 20 -175 -54
-258 -36 -40 -65 -76 -65 -81 0 -4 -7 -15 -16 -24 -14 -14 -15 -22 -4 -61 l13
-46 12 34 c14 43 76 136 111 168 l26 25 -5 -100 c-3 -55 -14 -136 -26 -180
-11 -43 -19 -81 -17 -82 9 -9 118 124 184 225 65 99 82 117 144 157 66 43 198
144 198 152 0 7 -22 -8 -65 -42 -59 -46 -63 -48 -60 -20 4 29 -7 39 -62 55
-45 14 -138 89 -148 120 -8 27 56 160 102 211 l35 39 47 -27 c25 -14 91 -55
146 -90 90 -57 96 -57 20 3 l-27 21 22 69 c15 47 22 103 25 179 4 119 0 116
-10 -9 -6 -70 -8 -76 -19 -55 -11 22 -17 24 -83 21 -69 -3 -75 -2 -178 50 -66
32 -110 61 -115 73 -4 11 -11 48 -15 83 -4 34 -11 65 -16 68 -5 3 -9 9 -9 13
0 12 62 0 96 -19 16 -10 44 -21 61 -24 26 -6 32 -4 37 12 11 33 -24 89 -47 75
-4 -2 -6 1 -5 9 2 7 10 16 18 19 20 9 -72 23 -107 17 -16 -3 -36 -9 -45 -13
-14 -6 -18 -2 -18 17 0 39 53 86 193 172 19 12 32 14 45 7 47 -25 222 -242
222 -275 0 -8 4 -17 9 -21 30 -18 77 391 55 473 -10 35 -112 31 -229 -9z m177
-115 c9 -6 9 -106 0 -183 l-7 -54 -50 64 c-27 35 -69 82 -93 105 -49 47 -45
56 28 72 41 10 104 7 122 -4z m-894 -122 c9 -10 35 -45 57 -78 22 -32 44 -62
50 -66 6 -4 1 -24 -13 -52 -15 -32 -24 -74 -28 -142 -4 -55 -12 -97 -18 -99
-6 -2 -43 -9 -83 -15 -62 -11 -73 -11 -87 3 -24 24 -78 55 -109 63 -21 5 -25
9 -15 15 8 6 -1 9 -28 9 -25 0 -41 5 -43 13 -1 6 -4 65 -7 131 l-6 118 52 -7
c29 -4 86 -20 129 -35 l76 -28 6 -83 c4 -46 6 -85 5 -86 -1 -2 -40 -6 -87 -11
-79 -8 -76 -8 59 -8 79 1 129 4 112 7 -38 8 -38 8 -42 44 -3 26 1 30 27 36
l30 7 -32 1 c-30 1 -33 4 -33 34 0 45 5 48 48 30 l37 -15 -33 34 c-37 39 -52
82 -52 150 0 53 2 56 28 30z m455 -477 c8 -8 17 -11 21 -8 3 4 6 1 6 -5 0 -6
27 -28 60 -48 l61 -37 -24 -26 c-28 -30 -77 -112 -96 -158 -7 -18 -17 -33 -22
-33 -9 0 -108 131 -150 198 l-19 29 63 51 c68 55 78 59 100 37z m-465 -133 c2
-18 -6 -80 -17 -139 -16 -80 -30 -120 -57 -164 l-35 -59 -79 81 -79 81 33 52
c18 28 65 82 105 119 58 54 78 68 99 65 22 -2 28 -9 30 -36z"/>
</g>
</svg>
